<?xml version="1.0" encoding="UTF-8" standalone="no"?>
<!-- Created with Inkscape (http://www.inkscape.org/) -->

<svg
   xmlns:dc="http://purl.org/dc/elements/1.1/"
   xmlns:cc="http://creativecommons.org/ns#"
   xmlns:rdf="http://www.w3.org/1999/02/22-rdf-syntax-ns#"
   xmlns:svg="http://www.w3.org/2000/svg"
   xmlns="http://www.w3.org/2000/svg"
   xmlns:sodipodi="http://sodipodi.sourceforge.net/DTD/sodipodi-0.dtd"
   xmlns:inkscape="http://www.inkscape.org/namespaces/inkscape"
   width="32"
   height="128"
   viewBox="0 0 8.4666665 33.866668"
   version="1.1"
   id="svg852"
   inkscape:export-filename="S:\main\git\CurlingGame\pic\brush.png"
   inkscape:export-xdpi="90"
   inkscape:export-ydpi="90"
   inkscape:version="0.92.2 (5c3e80d, 2017-08-06)"
   sodipodi:docname="brush.svg">
  <defs
     id="defs846" />
  <sodipodi:namedview
     id="base"
     pagecolor="#ffffff"
     bordercolor="#666666"
     borderopacity="1.0"
     inkscape:pageopacity="0.0"
     inkscape:pageshadow="2"
     inkscape:zoom="2.8284271"
     inkscape:cx="71.908203"
     inkscape:cy="56.839685"
     inkscape:document-units="px"
     inkscape:current-layer="g1420"
     showgrid="true"
     units="px"
     showguides="false"
     inkscape:object-paths="true"
     inkscape:snap-intersection-paths="true"
     inkscape:snap-bbox="true"
     inkscape:bbox-paths="true"
     inkscape:bbox-nodes="true"
     inkscape:snap-bbox-edge-midpoints="true"
     inkscape:snap-smooth-nodes="true"
     inkscape:window-width="725"
     inkscape:window-height="405"
     inkscape:window-x="26"
     inkscape:window-y="26"
     inkscape:window-maximized="0">
    <inkscape:grid
       type="xygrid"
       id="grid1397"
       empspacing="8"
       spacingy="0.13229167"
       spacingx="0.13229167" />
  </sodipodi:namedview>
  <metadata
     id="metadata849">
    <rdf:RDF>
      <cc:Work
         rdf:about="">
        <dc:format>image/svg+xml</dc:format>
        <dc:type
           rdf:resource="http://purl.org/dc/dcmitype/StillImage" />
        <dc:title></dc:title>
      </cc:Work>
    </rdf:RDF>
  </metadata>
  <g
     inkscape:label="レイヤー 1"
     inkscape:groupmode="layer"
     id="layer1"
     transform="translate(0,-263.13332)"
     style="display:inline">
    <path
       style="fill:#424242;fill-opacity:1;stroke:#000000;stroke-width:0.06614583;stroke-linecap:butt;stroke-linejoin:round;stroke-miterlimit:4;stroke-dasharray:none;stroke-opacity:1"
       d="m 0.52916668,295.94165 c -0.12687357,0.51373 0.52916672,0.50023 0.52916672,0.50023 h 4.2333334 c 0,0 0.4008241,-0.0158 0.5291666,-0.52917 l 0.2645834,-1.05833 c 0.1283426,-0.51337 -0.5291667,-0.52917 -0.5291667,-0.52917 H 1.3229167 c 0,0 -0.40154816,0.0283 -0.52842173,0.54207 z"
       id="path1405"
       inkscape:connector-curvature="0"
       sodipodi:nodetypes="sccssccss" />
    <path
       style="fill:#d0d0d0;fill-opacity:1;stroke:#000000;stroke-width:0.06614583;stroke-linecap:butt;stroke-linejoin:miter;stroke-miterlimit:4;stroke-dasharray:none;stroke-opacity:1"
       d="m 2.6458334,295.67707 c -0.1322916,0 -0.1322916,-0.13229 -0.1322916,-0.13229 l 4.1010417,-31.22084 v 0 c 0,0 0,-0.13229 0.1322917,-0.13229 h 0.5291667 c 0.1322916,0 0.1322916,0.13229 0.1322916,0.13229 l -3.8364584,31.22084 c 0,0 0,0.13229 -0.1322917,0.13229 -0.1322916,0 -0.79375,0 -0.79375,0 z"
       id="path1409"
       inkscape:connector-curvature="0"
       sodipodi:nodetypes="ccccsscccc" />
  </g>
  <g
     inkscape:groupmode="layer"
     id="layer2"
     inkscape:label="黒"
     style="display:none">
    <rect
       style="fill:#000000;fill-opacity:1;stroke:#000000;stroke-width:0.06614584;stroke-linecap:square;stroke-linejoin:round;stroke-miterlimit:4;stroke-dasharray:none;stroke-opacity:1"
       id="rect1414"
       width="8.4666672"
       height="33.866669"
       x="0"
       y="-5.2000001e-007" />
  </g>
  <g
     transform="translate(0,-263.13332)"
     id="g1420"
     inkscape:groupmode="layer"
     inkscape:label="レイヤー 1 コピー"
     style="display:none">
    <path
       sodipodi:nodetypes="sccssccss"
       inkscape:connector-curvature="0"
       id="path1416"
       d="m 0.52916668,295.94165 c -0.12687357,0.51373 0.52916672,0.50023 0.52916672,0.50023 h 4.2333334 c 0,0 0.4008241,-0.0158 0.5291666,-0.52917 l 0.2645834,-1.05833 c 0.1283426,-0.51337 -0.5291667,-0.52917 -0.5291667,-0.52917 H 1.3229167 c 0,0 -0.40154816,0.0283 -0.52842173,0.54207 z"
       style="fill:#ffffff;fill-opacity:1;stroke:#ffffff;stroke-width:0.06614583;stroke-linecap:butt;stroke-linejoin:round;stroke-miterlimit:4;stroke-dasharray:none;stroke-opacity:1" />
    <path
       sodipodi:nodetypes="ccccsscccc"
       inkscape:connector-curvature="0"
       id="path1418"
       d="m 2.6458334,295.67707 c -0.1322916,0 -0.1322916,-0.13229 -0.1322916,-0.13229 l 4.1010417,-31.22084 v 0 c 0,0 0,-0.13229 0.1322917,-0.13229 h 0.5291667 c 0.1322916,0 0.1322916,0.13229 0.1322916,0.13229 l -3.8364584,31.22084 c 0,0 0,0.13229 -0.1322917,0.13229 -0.1322916,0 -0.79375,0 -0.79375,0 z"
       style="fill:#ffffff;fill-opacity:1;stroke:#ffffff;stroke-width:0.06614583;stroke-linecap:butt;stroke-linejoin:miter;stroke-miterlimit:4;stroke-dasharray:none;stroke-opacity:1" />
  </g>
</svg>
