<?xml version="1.0" encoding="UTF-8" standalone="no"?>
<!-- Created with Inkscape (http://www.inkscape.org/) -->

<svg
   xmlns:dc="http://purl.org/dc/elements/1.1/"
   xmlns:cc="http://creativecommons.org/ns#"
   xmlns:rdf="http://www.w3.org/1999/02/22-rdf-syntax-ns#"
   xmlns:svg="http://www.w3.org/2000/svg"
   xmlns="http://www.w3.org/2000/svg"
   xmlns:sodipodi="http://sodipodi.sourceforge.net/DTD/sodipodi-0.dtd"
   xmlns:inkscape="http://www.inkscape.org/namespaces/inkscape"
   width="360"
   height="720"
   viewBox="0 0 95.249999 190.50002"
   version="1.1"
   id="svg8"
   inkscape:version="0.92.1 r15371"
   sodipodi:docname="sheet.svg"
   inkscape:export-filename="S:\main\git\CurlingGame\pic\sheet.png"
   inkscape:export-xdpi="96"
   inkscape:export-ydpi="96"
   style="enable-background:new">
  <defs
     id="defs2">
    <filter
       inkscape:collect="always"
       style="color-interpolation-filters:sRGB"
       id="filter852">
      <feBlend
         inkscape:collect="always"
         mode="screen"
         in2="BackgroundImage"
         id="feBlend854" />
    </filter>
  </defs>
  <sodipodi:namedview
     id="base"
     pagecolor="#ffffff"
     bordercolor="#666666"
     borderopacity="1.0"
     inkscape:pageopacity="0.0"
     inkscape:pageshadow="2"
     inkscape:zoom="5.6568542"
     inkscape:cx="295.70592"
     inkscape:cy="677.96711"
     inkscape:document-units="px"
     inkscape:current-layer="layer8"
     showgrid="true"
     units="px"
     showguides="true"
     inkscape:guide-bbox="true"
     inkscape:snap-bbox="true"
     inkscape:snap-global="true"
     inkscape:snap-bbox-edge-midpoints="true"
     inkscape:window-width="1366"
     inkscape:window-height="705"
     inkscape:window-x="-8"
     inkscape:window-y="-8"
     inkscape:window-maximized="1"
     inkscape:bbox-nodes="true"
     inkscape:bbox-paths="true"
     inkscape:object-paths="true"
     inkscape:snap-intersection-paths="true">
    <inkscape:grid
       type="xygrid"
       id="grid815"
       spacingx="0.52916669"
       spacingy="0.52916669"
       dotted="false"
       empspacing="8"
       color="#008aff"
       opacity="0.1254902"
       empcolor="#002341"
       empopacity="0.1254902" />
    <sodipodi:guide
       position="-4.2333333,47.625001"
       orientation="0,1"
       id="guide817"
       inkscape:locked="false"
       inkscape:label=""
       inkscape:color="rgb(0,0,255)" />
    <sodipodi:guide
       position="47.625001,-4.2333336"
       orientation="1,0"
       id="guide819"
       inkscape:locked="false"
       inkscape:label=""
       inkscape:color="rgb(0,0,255)" />
  </sodipodi:namedview>
  <metadata
     id="metadata5">
    <rdf:RDF>
      <cc:Work
         rdf:about="">
        <dc:format>image/svg+xml</dc:format>
        <dc:type
           rdf:resource="http://purl.org/dc/dcmitype/StillImage" />
        <dc:title></dc:title>
      </cc:Work>
    </rdf:RDF>
  </metadata>
  <g
     inkscape:label="枠"
     inkscape:groupmode="layer"
     id="layer1"
     transform="translate(0,-106.49997)"
     style="filter:url(#filter852)"
     sodipodi:insensitive="true">
    <rect
       style="fill:#525252;fill-opacity:1;stroke:#ffffff;stroke-width:0.06614584;stroke-linecap:square;stroke-linejoin:round;stroke-miterlimit:4;stroke-dasharray:none;stroke-opacity:1"
       id="rect821"
       width="95.25"
       height="190.5"
       x="0"
       y="106.49998" />
    <rect
       style="fill:#ffffff;fill-opacity:1;stroke:none;stroke-width:0.06614584;stroke-linecap:square;stroke-linejoin:round;stroke-miterlimit:4;stroke-dasharray:none;stroke-opacity:1"
       id="rect823"
       width="93.133339"
       height="188.38335"
       x="1.0583334"
       y="107.55831" />
  </g>
  <g
     inkscape:groupmode="layer"
     id="layer2"
     inkscape:label="サークル"
     sodipodi:insensitive="true"
     transform="translate(0,-4.2635025e-6)">
    <circle
       style="fill:#0000ff;fill-opacity:1;stroke:none;stroke-width:0.06614584;stroke-linecap:square;stroke-linejoin:round;stroke-miterlimit:4;stroke-dasharray:none;stroke-opacity:1"
       id="path836"
       cx="47.625"
       cy="142.875"
       r="42.333336" />
    <circle
       style="fill:#ffffff;fill-opacity:1;stroke:none;stroke-width:0.06063369;stroke-linecap:square;stroke-linejoin:round;stroke-miterlimit:4;stroke-dasharray:none;stroke-opacity:1"
       id="path838"
       cx="47.625"
       cy="142.875"
       r="29.104168" />
    <circle
       style="fill:#ff0000;fill-opacity:1;stroke:none;stroke-width:0.05787762;stroke-linecap:square;stroke-linejoin:round;stroke-miterlimit:4;stroke-dasharray:none;stroke-opacity:1"
       id="path840"
       cx="47.625"
       cy="142.875"
       r="18.520834" />
    <circle
       style="fill:#ffffff;fill-opacity:1;stroke:none;stroke-width:0.03307292;stroke-linecap:square;stroke-linejoin:round;stroke-miterlimit:4;stroke-dasharray:none;stroke-opacity:1"
       id="path842"
       cx="47.625"
       cy="142.875"
       r="5.291667" />
  </g>
  <g
     inkscape:groupmode="layer"
     id="layer3"
     inkscape:label="ライン"
     sodipodi:insensitive="true"
     transform="translate(0,-4.2635025e-6)">
    <path
       style="fill:none;stroke:#ff0000;stroke-width:2.11666679;stroke-linecap:butt;stroke-linejoin:miter;stroke-miterlimit:4;stroke-dasharray:none;stroke-opacity:1"
       d="M 21.166667,26.458333 H 74.083335"
       id="path845"
       inkscape:connector-curvature="0" />
  </g>
  <g
     inkscape:groupmode="layer"
     id="layer4"
     inkscape:label="雪の表現"
     sodipodi:insensitive="true"
     transform="translate(0,-4.2635025e-6)">
    <rect
       style="fill:#000000;fill-opacity:0.02631579;stroke:none;stroke-width:41.24695206;stroke-linecap:square;stroke-linejoin:round;stroke-miterlimit:4;stroke-dasharray:none;stroke-opacity:1"
       id="rect863"
       width="93.133339"
       height="188.38333"
       x="1.0583334"
       y="1.0583326" />
  </g>
  <g
     inkscape:groupmode="layer"
     id="layer5"
     inkscape:label="弧"
     style="display:none">
    <path
       style="fill:#ceecff;fill-opacity:0.60317461;stroke:#ffffff;stroke-width:0.06614584;stroke-linecap:square;stroke-linejoin:round;stroke-miterlimit:4;stroke-dasharray:none;stroke-opacity:1"
       id="path4520"
       sodipodi:type="arc"
       sodipodi:cx="47.625004"
       sodipodi:cy="26.458336"
       sodipodi:rx="116.41667"
       sodipodi:ry="116.41667"
       sodipodi:start="1.1530247"
       sodipodi:end="1.9841427"
       d="M 94.858128,132.86263 A 116.41667,116.41667 0 0 1 0.86320692,133.0706 L 47.625004,26.458336 Z" />
  </g>
  <g
     inkscape:groupmode="layer"
     id="layer6"
     inkscape:label="線"
     style="display:none">
    <path
       style="fill:none;stroke:#000000;stroke-width:0.26458335px;stroke-linecap:round;stroke-linejoin:miter;stroke-opacity:1"
       d="M 47.625003,26.458332 V 142.87501"
       id="path4523"
       inkscape:connector-curvature="0" />
    <path
       style="fill:none;stroke:#000000;stroke-width:0.26458335px;stroke-linecap:round;stroke-linejoin:miter;stroke-opacity:1"
       d="M 58.208337,142.87501 47.625003,26.458332"
       id="path4525"
       inkscape:connector-curvature="0" />
    <path
       style="fill:none;stroke:#000000;stroke-width:0.26458335px;stroke-linecap:round;stroke-linejoin:miter;stroke-opacity:1"
       d="M 68.79167,140.22917 47.625003,26.458332"
       id="path4527"
       inkscape:connector-curvature="0"
       sodipodi:nodetypes="cc" />
    <path
       style="fill:none;stroke:#000000;stroke-width:0.26458335px;stroke-linecap:round;stroke-linejoin:miter;stroke-opacity:1"
       d="M 79.375005,137.58334 47.625003,26.458332"
       id="path4531"
       inkscape:connector-curvature="0" />
    <path
       inkscape:connector-curvature="0"
       id="path4535"
       d="M 37.041668,142.87501 47.625002,26.458335"
       style="fill:none;stroke:#000000;stroke-width:0.26458335px;stroke-linecap:round;stroke-linejoin:miter;stroke-opacity:1" />
    <path
       sodipodi:nodetypes="cc"
       inkscape:connector-curvature="0"
       id="path4537"
       d="M 26.458335,140.22917 47.625002,26.458335"
       style="fill:none;stroke:#000000;stroke-width:0.26458335px;stroke-linecap:round;stroke-linejoin:miter;stroke-opacity:1" />
    <path
       inkscape:connector-curvature="0"
       id="path4539"
       d="M 15.875,137.58334 47.625002,26.458335"
       style="fill:none;stroke:#000000;stroke-width:0.26458335px;stroke-linecap:round;stroke-linejoin:miter;stroke-opacity:1" />
  </g>
  <g
     inkscape:groupmode="layer"
     id="layer7"
     inkscape:label="redstone"
     style="display:inline;opacity:0.24983607">
    <g
       style="display:none"
       transform="translate(1.0583334,-279.00831)"
       id="g844"
       inkscape:label="red">
      <ellipse
         ry="8.4666624"
         rx="8.4666672"
         cy="288.53333"
         cx="8.4666672"
         id="ellipse836"
         style="fill:#a1a1a1;fill-opacity:1;stroke:none;stroke-width:4.23333216;stroke-linecap:square;stroke-linejoin:round;stroke-miterlimit:4;stroke-dasharray:none;stroke-opacity:1" />
      <path
         sodipodi:open="true"
         d="m 15.081226,288.53329 a 6.6145716,6.6145797 0 0 1 -6.6028826,6.61457 6.6145716,6.6145797 0 0 1 -6.6262189,-6.59119 6.6145716,6.6145797 0 0 1 6.5794646,-6.63786 6.6145716,6.6145797 0 0 1 6.6494719,6.56773"
         sodipodi:end="6.2761169"
         sodipodi:start="0"
         sodipodi:ry="6.6145797"
         sodipodi:rx="6.6145716"
         sodipodi:cy="288.53329"
         sodipodi:cx="8.4666548"
         sodipodi:type="arc"
         id="path838-6"
         style="fill:#c1c1c1;fill-opacity:1;stroke:none;stroke-width:4.18342543;stroke-linecap:square;stroke-linejoin:round;stroke-miterlimit:4;stroke-dasharray:none;stroke-opacity:1" />
      <ellipse
         cx="8.4666662"
         cy="288.53333"
         rx="5.2916665"
         ry="5.2916613"
         id="ellipse840"
         style="fill:#ff0000;fill-opacity:1;stroke:none;stroke-width:3.90815806;stroke-linecap:square;stroke-linejoin:round;stroke-miterlimit:4;stroke-dasharray:none;stroke-opacity:1" />
      <path
         sodipodi:nodetypes="csccscc"
         inkscape:connector-curvature="0"
         id="path842-9"
         d="m 7.6729169,288.53331 c 0,0 -6e-7,-0.79375 0.7937497,-0.79375 0.7937503,0 0.7937503,0.79375 0.7937503,0.79375 l -10e-8,3.96875 c 0,0 10e-8,0.79375 -0.7937501,0.79375 -0.7937499,0 -0.79375,-0.79375 -0.79375,-0.79375 z"
         style="fill:#c00000;fill-opacity:1;stroke:none;stroke-width:0.26458335px;stroke-linecap:butt;stroke-linejoin:miter;stroke-opacity:1" />
    </g>
    <g
       id="layer3-7"
       inkscape:label="透明化"
       style="display:none"
       transform="translate(1.0583334,1.058334)">
      <rect
         style="fill:#070000;fill-opacity:1;stroke:none;stroke-width:3.17500019;stroke-linecap:square;stroke-linejoin:round;stroke-miterlimit:4;stroke-dasharray:none;stroke-opacity:1"
         id="rect829"
         width="16.933334"
         height="16.933334"
         x="0"
         y="0" />
      <path
         style="fill:#ffffff;fill-opacity:1;stroke:none;stroke-width:4.23333359;stroke-linecap:square;stroke-linejoin:round;stroke-miterlimit:4;stroke-dasharray:none;stroke-opacity:1"
         id="path833"
         sodipodi:type="arc"
         sodipodi:cx="8.4666672"
         sodipodi:cy="8.4666662"
         sodipodi:rx="8.4666672"
         sodipodi:ry="8.4666672"
         sodipodi:start="0"
         sodipodi:end="6.2761167"
         sodipodi:open="true"
         d="M 16.933334,8.4666662 A 8.4666672,8.4666672 0 0 1 8.4816291,16.93332 8.4666672,8.4666672 0 0 1 5.2879793e-5,8.4965899 8.4666672,8.4666672 0 0 1 8.4217817,1.180257e-4 8.4666672,8.4666672 0 0 1 16.933123,8.4068192" />
    </g>
    <g
       id="g4732">
      <g
         transform="translate(-76.200006,1.5367621e-6)"
         id="g4680">
        <ellipse
           ry="8.4666624"
           rx="8.4666672"
           cy="9.5249949"
           cx="85.725006"
           id="ellipse4641"
           style="fill:#a1a1a1;fill-opacity:1;stroke:none;stroke-width:4.23333216;stroke-linecap:square;stroke-linejoin:round;stroke-miterlimit:4;stroke-dasharray:none;stroke-opacity:1" />
        <path
           sodipodi:open="true"
           d="m 92.339562,9.5249643 a 6.6145716,6.6145797 0 0 1 -6.602883,6.6145697 6.6145716,6.6145797 0 0 1 -6.626218,-6.5911924 6.6145716,6.6145797 0 0 1 6.579464,-6.637864 6.6145716,6.6145797 0 0 1 6.649472,6.5677326"
           sodipodi:end="6.2761169"
           sodipodi:start="0"
           sodipodi:ry="6.6145797"
           sodipodi:rx="6.6145716"
           sodipodi:cy="9.5249643"
           sodipodi:cx="85.724991"
           sodipodi:type="arc"
           id="path4643"
           style="fill:#c1c1c1;fill-opacity:1;stroke:none;stroke-width:4.18342543;stroke-linecap:square;stroke-linejoin:round;stroke-miterlimit:4;stroke-dasharray:none;stroke-opacity:1" />
        <ellipse
           cx="85.725006"
           cy="9.5249949"
           rx="5.2916665"
           ry="5.2916613"
           id="ellipse4645"
           style="fill:#ff0000;fill-opacity:1;stroke:none;stroke-width:3.90815806;stroke-linecap:square;stroke-linejoin:round;stroke-miterlimit:4;stroke-dasharray:none;stroke-opacity:1" />
        <path
           sodipodi:nodetypes="csccscc"
           inkscape:connector-curvature="0"
           id="path4647"
           d="m 84.931254,9.52498 c 0,0 -10e-7,-0.79375 0.79375,-0.79375 0.79375,0 0.79375,0.79375 0.79375,0.79375 v 3.96875 c 0,0 0,0.79375 -0.79375,0.79375 -0.79375,0 -0.79375,-0.79375 -0.79375,-0.79375 z"
           style="fill:#c00000;fill-opacity:1;stroke:none;stroke-width:0.26458335px;stroke-linecap:butt;stroke-linejoin:miter;stroke-opacity:1" />
      </g>
      <g
         transform="translate(-76.200006,33.866671)"
         id="g4690">
        <ellipse
           style="fill:#a1a1a1;fill-opacity:1;stroke:none;stroke-width:4.23333216;stroke-linecap:square;stroke-linejoin:round;stroke-miterlimit:4;stroke-dasharray:none;stroke-opacity:1"
           id="ellipse4682"
           cx="85.725006"
           cy="9.5249949"
           rx="8.4666672"
           ry="8.4666624" />
        <path
           style="fill:#c1c1c1;fill-opacity:1;stroke:none;stroke-width:4.18342543;stroke-linecap:square;stroke-linejoin:round;stroke-miterlimit:4;stroke-dasharray:none;stroke-opacity:1"
           id="path4684"
           sodipodi:type="arc"
           sodipodi:cx="85.724991"
           sodipodi:cy="9.5249643"
           sodipodi:rx="6.6145716"
           sodipodi:ry="6.6145797"
           sodipodi:start="0"
           sodipodi:end="6.2761169"
           d="m 92.339562,9.5249643 a 6.6145716,6.6145797 0 0 1 -6.602883,6.6145697 6.6145716,6.6145797 0 0 1 -6.626218,-6.5911924 6.6145716,6.6145797 0 0 1 6.579464,-6.637864 6.6145716,6.6145797 0 0 1 6.649472,6.5677326"
           sodipodi:open="true" />
        <ellipse
           style="fill:#ff0000;fill-opacity:1;stroke:none;stroke-width:3.90815806;stroke-linecap:square;stroke-linejoin:round;stroke-miterlimit:4;stroke-dasharray:none;stroke-opacity:1"
           id="ellipse4686"
           ry="5.2916613"
           rx="5.2916665"
           cy="9.5249949"
           cx="85.725006" />
        <path
           style="fill:#c00000;fill-opacity:1;stroke:none;stroke-width:0.26458335px;stroke-linecap:butt;stroke-linejoin:miter;stroke-opacity:1"
           d="m 84.931254,9.52498 c 0,0 -10e-7,-0.79375 0.79375,-0.79375 0.79375,0 0.79375,0.79375 0.79375,0.79375 v 3.96875 c 0,0 0,0.79375 -0.79375,0.79375 -0.79375,0 -0.79375,-0.79375 -0.79375,-0.79375 z"
           id="path4688"
           inkscape:connector-curvature="0"
           sodipodi:nodetypes="csccscc" />
      </g>
      <g
         transform="translate(-76.200006,16.933337)"
         id="g4700">
        <ellipse
           ry="8.4666624"
           rx="8.4666672"
           cy="9.5249949"
           cx="85.725006"
           id="ellipse4692"
           style="fill:#a1a1a1;fill-opacity:1;stroke:none;stroke-width:4.23333216;stroke-linecap:square;stroke-linejoin:round;stroke-miterlimit:4;stroke-dasharray:none;stroke-opacity:1" />
        <path
           sodipodi:open="true"
           d="m 92.339562,9.5249643 a 6.6145716,6.6145797 0 0 1 -6.602883,6.6145697 6.6145716,6.6145797 0 0 1 -6.626218,-6.5911924 6.6145716,6.6145797 0 0 1 6.579464,-6.637864 6.6145716,6.6145797 0 0 1 6.649472,6.5677326"
           sodipodi:end="6.2761169"
           sodipodi:start="0"
           sodipodi:ry="6.6145797"
           sodipodi:rx="6.6145716"
           sodipodi:cy="9.5249643"
           sodipodi:cx="85.724991"
           sodipodi:type="arc"
           id="path4694"
           style="fill:#c1c1c1;fill-opacity:1;stroke:none;stroke-width:4.18342543;stroke-linecap:square;stroke-linejoin:round;stroke-miterlimit:4;stroke-dasharray:none;stroke-opacity:1" />
        <ellipse
           cx="85.725006"
           cy="9.5249949"
           rx="5.2916665"
           ry="5.2916613"
           id="ellipse4696"
           style="fill:#ff0000;fill-opacity:1;stroke:none;stroke-width:3.90815806;stroke-linecap:square;stroke-linejoin:round;stroke-miterlimit:4;stroke-dasharray:none;stroke-opacity:1" />
        <path
           sodipodi:nodetypes="csccscc"
           inkscape:connector-curvature="0"
           id="path4698"
           d="m 84.931254,9.52498 c 0,0 -10e-7,-0.79375 0.79375,-0.79375 0.79375,0 0.79375,0.79375 0.79375,0.79375 v 3.96875 c 0,0 0,0.79375 -0.79375,0.79375 -0.79375,0 -0.79375,-0.79375 -0.79375,-0.79375 z"
           style="fill:#c00000;fill-opacity:1;stroke:none;stroke-width:0.26458335px;stroke-linecap:butt;stroke-linejoin:miter;stroke-opacity:1" />
      </g>
      <g
         transform="translate(-76.200006,50.800005)"
         id="g4710">
        <ellipse
           style="fill:#a1a1a1;fill-opacity:1;stroke:none;stroke-width:4.23333216;stroke-linecap:square;stroke-linejoin:round;stroke-miterlimit:4;stroke-dasharray:none;stroke-opacity:1"
           id="ellipse4702"
           cx="85.725006"
           cy="9.5249949"
           rx="8.4666672"
           ry="8.4666624" />
        <path
           style="fill:#c1c1c1;fill-opacity:1;stroke:none;stroke-width:4.18342543;stroke-linecap:square;stroke-linejoin:round;stroke-miterlimit:4;stroke-dasharray:none;stroke-opacity:1"
           id="path4704"
           sodipodi:type="arc"
           sodipodi:cx="85.724991"
           sodipodi:cy="9.5249643"
           sodipodi:rx="6.6145716"
           sodipodi:ry="6.6145797"
           sodipodi:start="0"
           sodipodi:end="6.2761169"
           d="m 92.339562,9.5249643 a 6.6145716,6.6145797 0 0 1 -6.602883,6.6145697 6.6145716,6.6145797 0 0 1 -6.626218,-6.5911924 6.6145716,6.6145797 0 0 1 6.579464,-6.637864 6.6145716,6.6145797 0 0 1 6.649472,6.5677326"
           sodipodi:open="true" />
        <ellipse
           style="fill:#ff0000;fill-opacity:1;stroke:none;stroke-width:3.90815806;stroke-linecap:square;stroke-linejoin:round;stroke-miterlimit:4;stroke-dasharray:none;stroke-opacity:1"
           id="ellipse4706"
           ry="5.2916613"
           rx="5.2916665"
           cy="9.5249949"
           cx="85.725006" />
        <path
           style="fill:#c00000;fill-opacity:1;stroke:none;stroke-width:0.26458335px;stroke-linecap:butt;stroke-linejoin:miter;stroke-opacity:1"
           d="m 84.931254,9.52498 c 0,0 -10e-7,-0.79375 0.79375,-0.79375 0.79375,0 0.79375,0.79375 0.79375,0.79375 v 3.96875 c 0,0 0,0.79375 -0.79375,0.79375 -0.79375,0 -0.79375,-0.79375 -0.79375,-0.79375 z"
           id="path4708"
           inkscape:connector-curvature="0"
           sodipodi:nodetypes="csccscc" />
      </g>
    </g>
  </g>
  <g
     inkscape:groupmode="layer"
     id="layer8"
     inkscape:label="yellowstone"
     style="display:inline;opacity:0.25">
    <g
       style="display:inline;enable-background:new"
       transform="translate(77.258336,-279.00833)"
       id="g4579"
       inkscape:label="yellow">
      <ellipse
         ry="8.4666624"
         rx="8.4666672"
         cy="288.53333"
         cx="8.4666672"
         id="ellipse4571"
         style="fill:#a1a1a1;fill-opacity:1;stroke:none;stroke-width:4.23333216;stroke-linecap:square;stroke-linejoin:round;stroke-miterlimit:4;stroke-dasharray:none;stroke-opacity:1" />
      <path
         sodipodi:open="true"
         d="m 15.081226,288.53329 a 6.6145716,6.6145797 0 0 1 -6.6028826,6.61457 6.6145716,6.6145797 0 0 1 -6.6262189,-6.59119 6.6145716,6.6145797 0 0 1 6.5794646,-6.63786 6.6145716,6.6145797 0 0 1 6.6494719,6.56773"
         sodipodi:end="6.2761169"
         sodipodi:start="0"
         sodipodi:ry="6.6145797"
         sodipodi:rx="6.6145716"
         sodipodi:cy="288.53329"
         sodipodi:cx="8.4666548"
         sodipodi:type="arc"
         id="path4573"
         style="fill:#c1c1c1;fill-opacity:1;stroke:none;stroke-width:4.18342543;stroke-linecap:square;stroke-linejoin:round;stroke-miterlimit:4;stroke-dasharray:none;stroke-opacity:1" />
      <ellipse
         cx="8.4666662"
         cy="288.53333"
         rx="5.2916665"
         ry="5.2916613"
         id="ellipse4575"
         style="fill:#ffff00;fill-opacity:1;stroke:none;stroke-width:3.90815806;stroke-linecap:square;stroke-linejoin:round;stroke-miterlimit:4;stroke-dasharray:none;stroke-opacity:1" />
      <path
         sodipodi:nodetypes="csccscc"
         inkscape:connector-curvature="0"
         id="path4577"
         d="m 7.6729169,288.53331 c 0,0 -6e-7,-0.79375 0.7937497,-0.79375 0.7937503,0 0.7937503,0.79375 0.7937503,0.79375 l -10e-8,3.96875 c 0,0 10e-8,0.79375 -0.7937501,0.79375 -0.7937499,0 -0.79375,-0.79375 -0.79375,-0.79375 z"
         style="fill:#ffc000;fill-opacity:1;stroke:none;stroke-width:0.26458335px;stroke-linecap:butt;stroke-linejoin:miter;stroke-opacity:1" />
    </g>
    <g
       inkscape:label="yellow"
       id="g4589"
       transform="translate(77.258336,-245.14167)"
       style="display:inline;enable-background:new">
      <ellipse
         style="fill:#a1a1a1;fill-opacity:1;stroke:none;stroke-width:4.23333216;stroke-linecap:square;stroke-linejoin:round;stroke-miterlimit:4;stroke-dasharray:none;stroke-opacity:1"
         id="ellipse4581"
         cx="8.4666672"
         cy="288.53333"
         rx="8.4666672"
         ry="8.4666624" />
      <path
         style="fill:#c1c1c1;fill-opacity:1;stroke:none;stroke-width:4.18342543;stroke-linecap:square;stroke-linejoin:round;stroke-miterlimit:4;stroke-dasharray:none;stroke-opacity:1"
         id="path4583"
         sodipodi:type="arc"
         sodipodi:cx="8.4666548"
         sodipodi:cy="288.53329"
         sodipodi:rx="6.6145716"
         sodipodi:ry="6.6145797"
         sodipodi:start="0"
         sodipodi:end="6.2761169"
         d="m 15.081226,288.53329 a 6.6145716,6.6145797 0 0 1 -6.6028826,6.61457 6.6145716,6.6145797 0 0 1 -6.6262189,-6.59119 6.6145716,6.6145797 0 0 1 6.5794646,-6.63786 6.6145716,6.6145797 0 0 1 6.6494719,6.56773"
         sodipodi:open="true" />
      <ellipse
         style="fill:#ffff00;fill-opacity:1;stroke:none;stroke-width:3.90815806;stroke-linecap:square;stroke-linejoin:round;stroke-miterlimit:4;stroke-dasharray:none;stroke-opacity:1"
         id="ellipse4585"
         ry="5.2916613"
         rx="5.2916665"
         cy="288.53333"
         cx="8.4666662" />
      <path
         style="fill:#ffc000;fill-opacity:1;stroke:none;stroke-width:0.26458335px;stroke-linecap:butt;stroke-linejoin:miter;stroke-opacity:1"
         d="m 7.6729169,288.53331 c 0,0 -6e-7,-0.79375 0.7937497,-0.79375 0.7937503,0 0.7937503,0.79375 0.7937503,0.79375 l -10e-8,3.96875 c 0,0 10e-8,0.79375 -0.7937501,0.79375 -0.7937499,0 -0.79375,-0.79375 -0.79375,-0.79375 z"
         id="path4587"
         inkscape:connector-curvature="0"
         sodipodi:nodetypes="csccscc" />
    </g>
    <g
       style="display:inline;enable-background:new"
       transform="translate(77.258336,-262.075)"
       id="g4599"
       inkscape:label="yellow">
      <ellipse
         ry="8.4666624"
         rx="8.4666672"
         cy="288.53333"
         cx="8.4666672"
         id="ellipse4591"
         style="fill:#a1a1a1;fill-opacity:1;stroke:none;stroke-width:4.23333216;stroke-linecap:square;stroke-linejoin:round;stroke-miterlimit:4;stroke-dasharray:none;stroke-opacity:1" />
      <path
         sodipodi:open="true"
         d="m 15.081226,288.53329 a 6.6145716,6.6145797 0 0 1 -6.6028826,6.61457 6.6145716,6.6145797 0 0 1 -6.6262189,-6.59119 6.6145716,6.6145797 0 0 1 6.5794646,-6.63786 6.6145716,6.6145797 0 0 1 6.6494719,6.56773"
         sodipodi:end="6.2761169"
         sodipodi:start="0"
         sodipodi:ry="6.6145797"
         sodipodi:rx="6.6145716"
         sodipodi:cy="288.53329"
         sodipodi:cx="8.4666548"
         sodipodi:type="arc"
         id="path4593"
         style="fill:#c1c1c1;fill-opacity:1;stroke:none;stroke-width:4.18342543;stroke-linecap:square;stroke-linejoin:round;stroke-miterlimit:4;stroke-dasharray:none;stroke-opacity:1" />
      <ellipse
         cx="8.4666662"
         cy="288.53333"
         rx="5.2916665"
         ry="5.2916613"
         id="ellipse4595"
         style="fill:#ffff00;fill-opacity:1;stroke:none;stroke-width:3.90815806;stroke-linecap:square;stroke-linejoin:round;stroke-miterlimit:4;stroke-dasharray:none;stroke-opacity:1" />
      <path
         sodipodi:nodetypes="csccscc"
         inkscape:connector-curvature="0"
         id="path4597"
         d="m 7.6729169,288.53331 c 0,0 -6e-7,-0.79375 0.7937497,-0.79375 0.7937503,0 0.7937503,0.79375 0.7937503,0.79375 l -10e-8,3.96875 c 0,0 10e-8,0.79375 -0.7937501,0.79375 -0.7937499,0 -0.79375,-0.79375 -0.79375,-0.79375 z"
         style="fill:#ffc000;fill-opacity:1;stroke:none;stroke-width:0.26458335px;stroke-linecap:butt;stroke-linejoin:miter;stroke-opacity:1" />
    </g>
    <g
       inkscape:label="yellow"
       id="g4609"
       transform="translate(77.258336,-228.20834)"
       style="display:inline;enable-background:new">
      <ellipse
         style="fill:#a1a1a1;fill-opacity:1;stroke:none;stroke-width:4.23333216;stroke-linecap:square;stroke-linejoin:round;stroke-miterlimit:4;stroke-dasharray:none;stroke-opacity:1"
         id="ellipse4601"
         cx="8.4666672"
         cy="288.53333"
         rx="8.4666672"
         ry="8.4666624" />
      <path
         style="fill:#c1c1c1;fill-opacity:1;stroke:none;stroke-width:4.18342543;stroke-linecap:square;stroke-linejoin:round;stroke-miterlimit:4;stroke-dasharray:none;stroke-opacity:1"
         id="path4603"
         sodipodi:type="arc"
         sodipodi:cx="8.4666548"
         sodipodi:cy="288.53329"
         sodipodi:rx="6.6145716"
         sodipodi:ry="6.6145797"
         sodipodi:start="0"
         sodipodi:end="6.2761169"
         d="m 15.081226,288.53329 a 6.6145716,6.6145797 0 0 1 -6.6028826,6.61457 6.6145716,6.6145797 0 0 1 -6.6262189,-6.59119 6.6145716,6.6145797 0 0 1 6.5794646,-6.63786 6.6145716,6.6145797 0 0 1 6.6494719,6.56773"
         sodipodi:open="true" />
      <ellipse
         style="fill:#ffff00;fill-opacity:1;stroke:none;stroke-width:3.90815806;stroke-linecap:square;stroke-linejoin:round;stroke-miterlimit:4;stroke-dasharray:none;stroke-opacity:1"
         id="ellipse4605"
         ry="5.2916613"
         rx="5.2916665"
         cy="288.53333"
         cx="8.4666662" />
      <path
         style="fill:#ffc000;fill-opacity:1;stroke:none;stroke-width:0.26458335px;stroke-linecap:butt;stroke-linejoin:miter;stroke-opacity:1"
         d="m 7.6729169,288.53331 c 0,0 -6e-7,-0.79375 0.7937497,-0.79375 0.7937503,0 0.7937503,0.79375 0.7937503,0.79375 l -10e-8,3.96875 c 0,0 10e-8,0.79375 -0.7937501,0.79375 -0.7937499,0 -0.79375,-0.79375 -0.79375,-0.79375 z"
         id="path4607"
         inkscape:connector-curvature="0"
         sodipodi:nodetypes="csccscc" />
    </g>
  </g>
</svg>
