<?xml version="1.0" encoding="UTF-8" standalone="no"?>
<!-- Created with Inkscape (http://www.inkscape.org/) -->

<svg
   xmlns:dc="http://purl.org/dc/elements/1.1/"
   xmlns:cc="http://creativecommons.org/ns#"
   xmlns:rdf="http://www.w3.org/1999/02/22-rdf-syntax-ns#"
   xmlns:svg="http://www.w3.org/2000/svg"
   xmlns="http://www.w3.org/2000/svg"
   xmlns:sodipodi="http://sodipodi.sourceforge.net/DTD/sodipodi-0.dtd"
   xmlns:inkscape="http://www.inkscape.org/namespaces/inkscape"
   width="1280"
   height="480"
   viewBox="0 0 338.66667 127.00001"
   version="1.1"
   id="svg8"
   inkscape:version="0.92.1 r15371"
   sodipodi:docname="sheet_side.svg"
   inkscape:export-filename="S:\main\git\CurlingGame\pic\sheet.png"
   inkscape:export-xdpi="96"
   inkscape:export-ydpi="96"
   style="enable-background:new">
  <defs
     id="defs2">
    <filter
       inkscape:collect="always"
       style="color-interpolation-filters:sRGB"
       id="filter852">
      <feBlend
         inkscape:collect="always"
         mode="screen"
         in2="BackgroundImage"
         id="feBlend854" />
    </filter>
  </defs>
  <sodipodi:namedview
     id="base"
     pagecolor="#ffffff"
     bordercolor="#666666"
     borderopacity="1.0"
     inkscape:pageopacity="0.0"
     inkscape:pageshadow="2"
     inkscape:zoom="1.4142136"
     inkscape:cx="360.90236"
     inkscape:cy="200.78939"
     inkscape:document-units="px"
     inkscape:current-layer="layer8"
     showgrid="true"
     units="px"
     showguides="true"
     inkscape:guide-bbox="true"
     inkscape:snap-bbox="true"
     inkscape:snap-global="true"
     inkscape:snap-bbox-edge-midpoints="true"
     inkscape:window-width="1366"
     inkscape:window-height="705"
     inkscape:window-x="-8"
     inkscape:window-y="-8"
     inkscape:window-maximized="1"
     inkscape:bbox-nodes="true"
     inkscape:bbox-paths="true"
     inkscape:object-paths="true"
     inkscape:snap-intersection-paths="true"
     inkscape:snap-bbox-midpoints="true">
    <inkscape:grid
       type="xygrid"
       id="grid815"
       spacingx="1.0583334"
       spacingy="1.0583334"
       dotted="false"
       empspacing="4"
       color="#002341"
       opacity="0.1254902"
       empcolor="#008aff"
       empopacity="0.4627451"
       enabled="true"
       visible="true" />
    <sodipodi:guide
       position="-8.4666672,63.500004"
       orientation="0,1"
       id="guide817"
       inkscape:locked="false"
       inkscape:label=""
       inkscape:color="rgb(0,0,255)" />
    <sodipodi:guide
       position="287.86667,135.46668"
       orientation="1,0"
       id="guide4631"
       inkscape:locked="false" />
    <sodipodi:guide
       position="33.866668,135.46668"
       orientation="1,0"
       id="guide4633"
       inkscape:locked="false" />
  </sodipodi:namedview>
  <metadata
     id="metadata5">
    <rdf:RDF>
      <cc:Work
         rdf:about="">
        <dc:format>image/svg+xml</dc:format>
        <dc:type
           rdf:resource="http://purl.org/dc/dcmitype/StillImage" />
        <dc:title></dc:title>
      </cc:Work>
    </rdf:RDF>
  </metadata>
  <g
     inkscape:groupmode="layer"
     id="layer4"
     inkscape:label="雪の表現"
     transform="translate(0,-63.500007)"
     sodipodi:insensitive="true">
    <rect
       style="fill:#000000;fill-opacity:0.02631579;stroke:none;stroke-width:63.8403244;stroke-linecap:square;stroke-linejoin:round;stroke-miterlimit:4;stroke-dasharray:none;stroke-opacity:1;enable-background:new"
       id="rect863"
       width="336.55002"
       height="124.88334"
       x="1.0583334"
       y="64.558342" />
  </g>
  <g
     inkscape:label="枠"
     inkscape:groupmode="layer"
     id="layer1"
     transform="translate(0,-169.99997)"
     style="filter:url(#filter852)">
    <path
       style="fill:#525252;fill-opacity:1;stroke:none;stroke-width:0.05090506;stroke-linecap:square;stroke-linejoin:round;stroke-miterlimit:4;stroke-dasharray:none;stroke-opacity:1"
       d="m 0,169.99997 h 338.66668 l 0,127.00001 H 0 Z"
       id="rect821"
       inkscape:connector-curvature="0"
       sodipodi:nodetypes="ccccc" />
    <rect
       style="fill:#ffffff;fill-opacity:1;stroke:none;stroke-width:9.52500248;stroke-miterlimit:4;stroke-dasharray:4.76250131, 4.76250131;stroke-dashoffset:0;stroke-opacity:1"
       id="rect4586"
       width="336.55002"
       height="124.88334"
       x="1.0583334"
       y="171.0583" />
  </g>
  <g
     inkscape:groupmode="layer"
     id="layer2"
     inkscape:label="サークル"
     transform="translate(0,-63.500007)">
    <g
       id="g4548"
       transform="translate(-1.819653e-5,-15.875006)">
      <circle
         transform="rotate(-90)"
         r="42.333336"
         cy="287.8667"
         cx="-142.87502"
         id="path836"
         style="fill:#0000ff;fill-opacity:1;stroke:none;stroke-width:0.06614584;stroke-linecap:square;stroke-linejoin:round;stroke-miterlimit:4;stroke-dasharray:none;stroke-opacity:1" />
      <circle
         transform="rotate(-90)"
         r="29.104168"
         cy="287.8667"
         cx="-142.87502"
         id="path838"
         style="fill:#ffffff;fill-opacity:1;stroke:none;stroke-width:0.06063369;stroke-linecap:square;stroke-linejoin:round;stroke-miterlimit:4;stroke-dasharray:none;stroke-opacity:1" />
      <circle
         transform="rotate(-90)"
         r="18.520834"
         cy="287.8667"
         cx="-142.87502"
         id="path840"
         style="fill:#ff0000;fill-opacity:1;stroke:none;stroke-width:0.05787762;stroke-linecap:square;stroke-linejoin:round;stroke-miterlimit:4;stroke-dasharray:none;stroke-opacity:1" />
      <circle
         transform="rotate(-90)"
         r="5.291667"
         cy="287.8667"
         cx="-142.87502"
         id="path842"
         style="fill:#ffffff;fill-opacity:1;stroke:none;stroke-width:0.03307292;stroke-linecap:square;stroke-linejoin:round;stroke-miterlimit:4;stroke-dasharray:none;stroke-opacity:1" />
    </g>
  </g>
  <g
     inkscape:groupmode="layer"
     id="layer3"
     inkscape:label="ライン"
     transform="translate(0,-63.500007)">
    <path
       style="fill:none;stroke:#ff0000;stroke-width:2.11666679;stroke-linecap:butt;stroke-linejoin:miter;stroke-miterlimit:4;stroke-dasharray:none;stroke-opacity:1"
       d="M 33.866668,153.45834 V 100.54168"
       id="path845"
       inkscape:connector-curvature="0" />
  </g>
  <g
     inkscape:groupmode="layer"
     id="layer7"
     inkscape:label="redstone"
     style="display:inline;opacity:0.3"
     transform="translate(0,-63.500003)">
    <g
       style="display:none"
       transform="translate(1.0583334,-279.00831)"
       id="g844"
       inkscape:label="red">
      <ellipse
         ry="8.4666624"
         rx="8.4666672"
         cy="288.53333"
         cx="8.4666672"
         id="ellipse836"
         style="fill:#a1a1a1;fill-opacity:1;stroke:none;stroke-width:4.23333216;stroke-linecap:square;stroke-linejoin:round;stroke-miterlimit:4;stroke-dasharray:none;stroke-opacity:1" />
      <path
         sodipodi:open="true"
         d="m 15.081226,288.53329 a 6.6145716,6.6145797 0 0 1 -6.6028826,6.61457 6.6145716,6.6145797 0 0 1 -6.6262189,-6.59119 6.6145716,6.6145797 0 0 1 6.5794646,-6.63786 6.6145716,6.6145797 0 0 1 6.6494719,6.56773"
         sodipodi:end="6.2761169"
         sodipodi:start="0"
         sodipodi:ry="6.6145797"
         sodipodi:rx="6.6145716"
         sodipodi:cy="288.53329"
         sodipodi:cx="8.4666548"
         sodipodi:type="arc"
         id="path838-6"
         style="fill:#c1c1c1;fill-opacity:1;stroke:none;stroke-width:4.18342543;stroke-linecap:square;stroke-linejoin:round;stroke-miterlimit:4;stroke-dasharray:none;stroke-opacity:1" />
      <ellipse
         cx="8.4666662"
         cy="288.53333"
         rx="5.2916665"
         ry="5.2916613"
         id="ellipse840"
         style="fill:#ff0000;fill-opacity:1;stroke:none;stroke-width:3.90815806;stroke-linecap:square;stroke-linejoin:round;stroke-miterlimit:4;stroke-dasharray:none;stroke-opacity:1" />
      <path
         sodipodi:nodetypes="csccscc"
         inkscape:connector-curvature="0"
         id="path842-9"
         d="m 7.6729169,288.53331 c 0,0 -6e-7,-0.79375 0.7937497,-0.79375 0.7937503,0 0.7937503,0.79375 0.7937503,0.79375 l -10e-8,3.96875 c 0,0 10e-8,0.79375 -0.7937501,0.79375 -0.7937499,0 -0.79375,-0.79375 -0.79375,-0.79375 z"
         style="fill:#c00000;fill-opacity:1;stroke:none;stroke-width:0.26458335px;stroke-linecap:butt;stroke-linejoin:miter;stroke-opacity:1" />
    </g>
    <g
       id="layer3-7"
       inkscape:label="透明化"
       style="display:none"
       transform="translate(1.0583334,1.058334)">
      <rect
         style="fill:#070000;fill-opacity:1;stroke:none;stroke-width:3.17500019;stroke-linecap:square;stroke-linejoin:round;stroke-miterlimit:4;stroke-dasharray:none;stroke-opacity:1"
         id="rect829"
         width="16.933334"
         height="16.933334"
         x="0"
         y="0" />
      <path
         style="fill:#ffffff;fill-opacity:1;stroke:none;stroke-width:4.23333359;stroke-linecap:square;stroke-linejoin:round;stroke-miterlimit:4;stroke-dasharray:none;stroke-opacity:1"
         id="path833"
         sodipodi:type="arc"
         sodipodi:cx="8.4666672"
         sodipodi:cy="8.4666662"
         sodipodi:rx="8.4666672"
         sodipodi:ry="8.4666672"
         sodipodi:start="0"
         sodipodi:end="6.2761167"
         sodipodi:open="true"
         d="M 16.933334,8.4666662 A 8.4666672,8.4666672 0 0 1 8.4816291,16.93332 8.4666672,8.4666672 0 0 1 5.2879793e-5,8.4965899 8.4666672,8.4666672 0 0 1 8.4217817,1.180257e-4 8.4666672,8.4666672 0 0 1 16.933123,8.4068192" />
    </g>
    <g
       id="g169">
      <g
         transform="rotate(90,9.5250006,180.97501)"
         id="g129">
        <ellipse
           ry="8.4666624"
           rx="8.4666672"
           cy="9.5250006"
           cx="-180.97501"
           id="ellipse4641"
           style="fill:#a1a1a1;fill-opacity:1;stroke:none;stroke-width:4.23333216;stroke-linecap:square;stroke-linejoin:round;stroke-miterlimit:4;stroke-dasharray:none;stroke-opacity:1"
           transform="rotate(-90)" />
        <path
           sodipodi:open="true"
           d="m -174.36045,9.5249701 a 6.6145716,6.6145797 0 0 1 -6.60288,6.6145689 6.6145716,6.6145797 0 0 1 -6.62622,-6.5911917 6.6145716,6.6145797 0 0 1 6.57946,-6.637864 6.6145716,6.6145797 0 0 1 6.64947,6.5677326"
           sodipodi:end="6.2761169"
           sodipodi:start="0"
           sodipodi:ry="6.6145797"
           sodipodi:rx="6.6145716"
           sodipodi:cy="9.5249701"
           sodipodi:cx="-180.97502"
           sodipodi:type="arc"
           id="path4643"
           style="fill:#c1c1c1;fill-opacity:1;stroke:none;stroke-width:4.18342543;stroke-linecap:square;stroke-linejoin:round;stroke-miterlimit:4;stroke-dasharray:none;stroke-opacity:1"
           transform="rotate(-90)" />
        <ellipse
           cx="-180.97501"
           cy="9.5250006"
           rx="5.2916665"
           ry="5.2916613"
           id="ellipse4645"
           style="fill:#ff0000;fill-opacity:1;stroke:none;stroke-width:3.90815806;stroke-linecap:square;stroke-linejoin:round;stroke-miterlimit:4;stroke-dasharray:none;stroke-opacity:1"
           transform="rotate(-90)" />
        <path
           sodipodi:nodetypes="csccscc"
           inkscape:connector-curvature="0"
           id="path4647"
           d="m 9.5249705,181.76876 c 0,0 -0.79375,0 -0.79375,-0.79375 0,-0.79375 0.79375,-0.79375 0.79375,-0.79375 h 3.9687505 c 0,0 0.79375,0 0.79375,0.79375 0,0.79375 -0.79375,0.79375 -0.79375,0.79375 z"
           style="fill:#c00000;fill-opacity:1;stroke:none;stroke-width:0.26458335px;stroke-linecap:butt;stroke-linejoin:miter;stroke-opacity:1" />
      </g>
      <g
         transform="rotate(90,43.391669,180.97501)"
         id="g141">
        <ellipse
           style="fill:#a1a1a1;fill-opacity:1;stroke:none;stroke-width:4.23333216;stroke-linecap:square;stroke-linejoin:round;stroke-miterlimit:4;stroke-dasharray:none;stroke-opacity:1"
           id="ellipse4682"
           cx="-180.97501"
           cy="43.39167"
           rx="8.4666672"
           ry="8.4666624"
           transform="rotate(-90)" />
        <path
           style="fill:#c1c1c1;fill-opacity:1;stroke:none;stroke-width:4.18342543;stroke-linecap:square;stroke-linejoin:round;stroke-miterlimit:4;stroke-dasharray:none;stroke-opacity:1"
           id="path4684"
           sodipodi:type="arc"
           sodipodi:cx="-180.97502"
           sodipodi:cy="43.39164"
           sodipodi:rx="6.6145716"
           sodipodi:ry="6.6145797"
           sodipodi:start="0"
           sodipodi:end="6.2761169"
           d="m -174.36045,43.39164 a 6.6145716,6.6145797 0 0 1 -6.60288,6.614569 6.6145716,6.6145797 0 0 1 -6.62622,-6.591192 6.6145716,6.6145797 0 0 1 6.57946,-6.637864 6.6145716,6.6145797 0 0 1 6.64947,6.567733"
           sodipodi:open="true"
           transform="rotate(-90)" />
        <ellipse
           style="fill:#ff0000;fill-opacity:1;stroke:none;stroke-width:3.90815806;stroke-linecap:square;stroke-linejoin:round;stroke-miterlimit:4;stroke-dasharray:none;stroke-opacity:1"
           id="ellipse4686"
           ry="5.2916613"
           rx="5.2916665"
           cy="43.39167"
           cx="-180.97501"
           transform="rotate(-90)" />
        <path
           style="fill:#c00000;fill-opacity:1;stroke:none;stroke-width:0.26458335px;stroke-linecap:butt;stroke-linejoin:miter;stroke-opacity:1"
           d="m 43.391641,181.76876 c 0,0 -0.79375,0 -0.79375,-0.79375 0,-0.79375 0.79375,-0.79375 0.79375,-0.79375 h 3.96875 c 0,0 0.79375,0 0.79375,0.79375 0,0.79375 -0.79375,0.79375 -0.79375,0.79375 z"
           id="path4688"
           inkscape:connector-curvature="0"
           sodipodi:nodetypes="csccscc" />
      </g>
      <g
         transform="rotate(90,26.458336,180.97501)"
         id="g135">
        <ellipse
           ry="8.4666624"
           rx="8.4666672"
           cy="26.458336"
           cx="-180.97501"
           id="ellipse4692"
           style="fill:#a1a1a1;fill-opacity:1;stroke:none;stroke-width:4.23333216;stroke-linecap:square;stroke-linejoin:round;stroke-miterlimit:4;stroke-dasharray:none;stroke-opacity:1"
           transform="rotate(-90)" />
        <path
           sodipodi:open="true"
           d="m -174.36045,26.458305 a 6.6145716,6.6145797 0 0 1 -6.60288,6.61457 6.6145716,6.6145797 0 0 1 -6.62622,-6.591192 6.6145716,6.6145797 0 0 1 6.57946,-6.637864 6.6145716,6.6145797 0 0 1 6.64947,6.567732"
           sodipodi:end="6.2761169"
           sodipodi:start="0"
           sodipodi:ry="6.6145797"
           sodipodi:rx="6.6145716"
           sodipodi:cy="26.458305"
           sodipodi:cx="-180.97502"
           sodipodi:type="arc"
           id="path4694"
           style="fill:#c1c1c1;fill-opacity:1;stroke:none;stroke-width:4.18342543;stroke-linecap:square;stroke-linejoin:round;stroke-miterlimit:4;stroke-dasharray:none;stroke-opacity:1"
           transform="rotate(-90)" />
        <ellipse
           cx="-180.97501"
           cy="26.458336"
           rx="5.2916665"
           ry="5.2916613"
           id="ellipse4696"
           style="fill:#ff0000;fill-opacity:1;stroke:none;stroke-width:3.90815806;stroke-linecap:square;stroke-linejoin:round;stroke-miterlimit:4;stroke-dasharray:none;stroke-opacity:1"
           transform="rotate(-90)" />
        <path
           sodipodi:nodetypes="csccscc"
           inkscape:connector-curvature="0"
           id="path4698"
           d="m 26.458311,181.76876 c 0,0 -0.79375,0 -0.79375,-0.79375 0,-0.79375 0.79375,-0.79375 0.79375,-0.79375 h 3.96875 c 0,0 0.79375,0 0.79375,0.79375 0,0.79375 -0.79375,0.79375 -0.79375,0.79375 z"
           style="fill:#c00000;fill-opacity:1;stroke:none;stroke-width:0.26458335px;stroke-linecap:butt;stroke-linejoin:miter;stroke-opacity:1" />
      </g>
      <g
         transform="rotate(90,60.325005,180.97501)"
         id="g147">
        <ellipse
           style="fill:#a1a1a1;fill-opacity:1;stroke:none;stroke-width:4.23333216;stroke-linecap:square;stroke-linejoin:round;stroke-miterlimit:4;stroke-dasharray:none;stroke-opacity:1"
           id="ellipse4702"
           cx="-180.97501"
           cy="60.325005"
           rx="8.4666672"
           ry="8.4666624"
           transform="rotate(-90)" />
        <path
           style="fill:#c1c1c1;fill-opacity:1;stroke:none;stroke-width:4.18342543;stroke-linecap:square;stroke-linejoin:round;stroke-miterlimit:4;stroke-dasharray:none;stroke-opacity:1"
           id="path4704"
           sodipodi:type="arc"
           sodipodi:cx="-180.97502"
           sodipodi:cy="60.324974"
           sodipodi:rx="6.6145716"
           sodipodi:ry="6.6145797"
           sodipodi:start="0"
           sodipodi:end="6.2761169"
           d="m -174.36045,60.324974 a 6.6145716,6.6145797 0 0 1 -6.60288,6.614569 6.6145716,6.6145797 0 0 1 -6.62622,-6.591192 6.6145716,6.6145797 0 0 1 6.57946,-6.637864 6.6145716,6.6145797 0 0 1 6.64947,6.567733"
           sodipodi:open="true"
           transform="rotate(-90)" />
        <ellipse
           style="fill:#ff0000;fill-opacity:1;stroke:none;stroke-width:3.90815806;stroke-linecap:square;stroke-linejoin:round;stroke-miterlimit:4;stroke-dasharray:none;stroke-opacity:1"
           id="ellipse4706"
           ry="5.2916613"
           rx="5.2916665"
           cy="60.325005"
           cx="-180.97501"
           transform="rotate(-90)" />
        <path
           style="fill:#c00000;fill-opacity:1;stroke:none;stroke-width:0.26458335px;stroke-linecap:butt;stroke-linejoin:miter;stroke-opacity:1"
           d="m 60.324971,181.76876 c 0,0 -0.79375,0 -0.79375,-0.79375 0,-0.79375 0.79375,-0.79375 0.79375,-0.79375 h 3.96875 c 0,0 0.79375,0 0.79375,0.79375 0,0.79375 -0.79375,0.79375 -0.79375,0.79375 z"
           id="path4708"
           inkscape:connector-curvature="0"
           sodipodi:nodetypes="csccscc" />
      </g>
    </g>
  </g>
  <g
     inkscape:groupmode="layer"
     id="layer8"
     inkscape:label="yellowstone"
     style="display:inline;opacity:0.3"
     transform="translate(0,-63.500003)">
    <g
       id="g191">
      <g
         transform="rotate(90,9.5249958,73.025002)"
         id="g89">
        <ellipse
           style="fill:#a1a1a1;fill-opacity:1;stroke:none;stroke-width:4.23333216;stroke-linecap:square;stroke-linejoin:round;stroke-miterlimit:4;stroke-dasharray:none;stroke-opacity:1"
           id="ellipse4571"
           cx="-73.025002"
           cy="9.5249958"
           rx="8.4666672"
           ry="8.4666624"
           transform="rotate(-90)" />
        <path
           style="fill:#c1c1c1;fill-opacity:1;stroke:none;stroke-width:4.18342543;stroke-linecap:square;stroke-linejoin:round;stroke-miterlimit:4;stroke-dasharray:none;stroke-opacity:1"
           id="path4573"
           sodipodi:type="arc"
           sodipodi:cx="-73.025017"
           sodipodi:cy="9.5249653"
           sodipodi:rx="6.6145716"
           sodipodi:ry="6.6145797"
           sodipodi:start="0"
           sodipodi:end="6.2761169"
           d="m -66.410445,9.5249653 a 6.6145716,6.6145797 0 0 1 -6.602883,6.6145697 6.6145716,6.6145797 0 0 1 -6.626219,-6.5911925 6.6145716,6.6145797 0 0 1 6.579465,-6.6378639 6.6145716,6.6145797 0 0 1 6.649472,6.5677325"
           sodipodi:open="true"
           transform="rotate(-90)" />
        <ellipse
           style="fill:#ffff00;fill-opacity:1;stroke:none;stroke-width:3.90815806;stroke-linecap:square;stroke-linejoin:round;stroke-miterlimit:4;stroke-dasharray:none;stroke-opacity:1"
           id="ellipse4575"
           ry="5.2916613"
           rx="5.2916665"
           cy="9.5249958"
           cx="-73.025009"
           transform="rotate(-90)" />
        <path
           style="fill:#ffc000;fill-opacity:1;stroke:none;stroke-width:0.26458335px;stroke-linecap:butt;stroke-linejoin:miter;stroke-opacity:1"
           d="m 9.5249657,73.818761 c 0,0 -0.79375,0 -0.79375,-0.79375 0,-0.79375 0.79375,-0.79375 0.79375,-0.79375 h 3.9687503 c 0,0 0.79375,0 0.79375,0.79375 0,0.79375 -0.79375,0.79375 -0.79375,0.79375 z"
           id="path4577"
           inkscape:connector-curvature="0"
           sodipodi:nodetypes="csccscc" />
      </g>
      <g
         transform="rotate(90,43.391651,73.025002)"
         id="g101">
        <ellipse
           ry="8.4666624"
           rx="8.4666672"
           cy="43.391651"
           cx="-73.025002"
           id="ellipse4581"
           style="fill:#a1a1a1;fill-opacity:1;stroke:none;stroke-width:4.23333216;stroke-linecap:square;stroke-linejoin:round;stroke-miterlimit:4;stroke-dasharray:none;stroke-opacity:1"
           transform="rotate(-90)" />
        <path
           sodipodi:open="true"
           d="m -66.410445,43.391621 a 6.6145716,6.6145797 0 0 1 -6.602883,6.614569 6.6145716,6.6145797 0 0 1 -6.626219,-6.591192 6.6145716,6.6145797 0 0 1 6.579465,-6.637864 6.6145716,6.6145797 0 0 1 6.649472,6.567732"
           sodipodi:end="6.2761169"
           sodipodi:start="0"
           sodipodi:ry="6.6145797"
           sodipodi:rx="6.6145716"
           sodipodi:cy="43.391621"
           sodipodi:cx="-73.025017"
           sodipodi:type="arc"
           id="path4583"
           style="fill:#c1c1c1;fill-opacity:1;stroke:none;stroke-width:4.18342543;stroke-linecap:square;stroke-linejoin:round;stroke-miterlimit:4;stroke-dasharray:none;stroke-opacity:1"
           transform="rotate(-90)" />
        <ellipse
           cx="-73.025009"
           cy="43.391651"
           rx="5.2916665"
           ry="5.2916613"
           id="ellipse4585"
           style="fill:#ffff00;fill-opacity:1;stroke:none;stroke-width:3.90815806;stroke-linecap:square;stroke-linejoin:round;stroke-miterlimit:4;stroke-dasharray:none;stroke-opacity:1"
           transform="rotate(-90)" />
        <path
           sodipodi:nodetypes="csccscc"
           inkscape:connector-curvature="0"
           id="path4587"
           d="m 43.391626,73.818761 c 0,0 -0.79375,0 -0.79375,-0.79375 0,-0.79375 0.79375,-0.79375 0.79375,-0.79375 h 3.96875 c 0,0 0.79375,0 0.79375,0.79375 0,0.79375 -0.79375,0.79375 -0.79375,0.79375 z"
           style="fill:#ffc000;fill-opacity:1;stroke:none;stroke-width:0.26458335px;stroke-linecap:butt;stroke-linejoin:miter;stroke-opacity:1" />
      </g>
      <g
         transform="rotate(90,26.45833,73.025002)"
         id="g95">
        <ellipse
           style="fill:#a1a1a1;fill-opacity:1;stroke:none;stroke-width:4.23333216;stroke-linecap:square;stroke-linejoin:round;stroke-miterlimit:4;stroke-dasharray:none;stroke-opacity:1"
           id="ellipse4591"
           cx="-73.025002"
           cy="26.45833"
           rx="8.4666672"
           ry="8.4666624"
           transform="rotate(-90)" />
        <path
           style="fill:#c1c1c1;fill-opacity:1;stroke:none;stroke-width:4.18342543;stroke-linecap:square;stroke-linejoin:round;stroke-miterlimit:4;stroke-dasharray:none;stroke-opacity:1"
           id="path4593"
           sodipodi:type="arc"
           sodipodi:cx="-73.025017"
           sodipodi:cy="26.4583"
           sodipodi:rx="6.6145716"
           sodipodi:ry="6.6145797"
           sodipodi:start="0"
           sodipodi:end="6.2761169"
           d="m -66.410445,26.4583 a 6.6145716,6.6145797 0 0 1 -6.602883,6.614569 6.6145716,6.6145797 0 0 1 -6.626219,-6.591192 6.6145716,6.6145797 0 0 1 6.579465,-6.637864 6.6145716,6.6145797 0 0 1 6.649472,6.567732"
           sodipodi:open="true"
           transform="rotate(-90)" />
        <ellipse
           style="fill:#ffff00;fill-opacity:1;stroke:none;stroke-width:3.90815806;stroke-linecap:square;stroke-linejoin:round;stroke-miterlimit:4;stroke-dasharray:none;stroke-opacity:1"
           id="ellipse4595"
           ry="5.2916613"
           rx="5.2916665"
           cy="26.45833"
           cx="-73.025009"
           transform="rotate(-90)" />
        <path
           style="fill:#ffc000;fill-opacity:1;stroke:none;stroke-width:0.26458335px;stroke-linecap:butt;stroke-linejoin:miter;stroke-opacity:1"
           d="m 26.458296,73.818761 c 0,0 -0.79375,0 -0.79375,-0.79375 0,-0.79375 0.79375,-0.79375 0.79375,-0.79375 h 3.96875 c 0,0 0.79375,0 0.79375,0.79375 0,0.79375 -0.79375,0.79375 -0.79375,0.79375 z"
           id="path4597"
           inkscape:connector-curvature="0"
           sodipodi:nodetypes="csccscc" />
      </g>
      <g
         transform="rotate(90,60.324985,73.025001)"
         id="g107">
        <ellipse
           ry="8.4666624"
           rx="8.4666672"
           cy="60.324986"
           cx="-73.025002"
           id="ellipse4601"
           style="fill:#a1a1a1;fill-opacity:1;stroke:none;stroke-width:4.23333216;stroke-linecap:square;stroke-linejoin:round;stroke-miterlimit:4;stroke-dasharray:none;stroke-opacity:1"
           transform="rotate(-90)" />
        <path
           sodipodi:open="true"
           d="m -66.410445,60.324955 a 6.6145716,6.6145797 0 0 1 -6.602883,6.614569 6.6145716,6.6145797 0 0 1 -6.626219,-6.591192 6.6145716,6.6145797 0 0 1 6.579465,-6.637864 6.6145716,6.6145797 0 0 1 6.649472,6.567733"
           sodipodi:end="6.2761169"
           sodipodi:start="0"
           sodipodi:ry="6.6145797"
           sodipodi:rx="6.6145716"
           sodipodi:cy="60.324955"
           sodipodi:cx="-73.025017"
           sodipodi:type="arc"
           id="path4603"
           style="fill:#c1c1c1;fill-opacity:1;stroke:none;stroke-width:4.18342543;stroke-linecap:square;stroke-linejoin:round;stroke-miterlimit:4;stroke-dasharray:none;stroke-opacity:1"
           transform="rotate(-90)" />
        <ellipse
           cx="-73.025009"
           cy="60.324986"
           rx="5.2916665"
           ry="5.2916613"
           id="ellipse4605"
           style="fill:#ffff00;fill-opacity:1;stroke:none;stroke-width:3.90815806;stroke-linecap:square;stroke-linejoin:round;stroke-miterlimit:4;stroke-dasharray:none;stroke-opacity:1"
           transform="rotate(-90)" />
        <path
           sodipodi:nodetypes="csccscc"
           inkscape:connector-curvature="0"
           id="path4607"
           d="m 60.324956,73.818761 c 0,0 -0.79375,0 -0.79375,-0.79375 0,-0.79375 0.79375,-0.79375 0.79375,-0.79375 h 3.96875 c 0,0 0.79375,0 0.79375,0.79375 0,0.79375 -0.79375,0.79375 -0.79375,0.79375 z"
           style="fill:#ffc000;fill-opacity:1;stroke:none;stroke-width:0.26458335px;stroke-linecap:butt;stroke-linejoin:miter;stroke-opacity:1" />
      </g>
    </g>
  </g>
</svg>
